<svg width="86" height="85" viewBox="0 0 86 85" fill="none" xmlns="http://www.w3.org/2000/svg">
<path fill-rule="evenodd" clip-rule="evenodd" d="M42.912 76.9745C62.0424 76.9745 77.5506 61.4663 77.5506 42.336C77.5506 23.2057 62.0424 7.69745 42.912 7.69745C23.7817 7.69745 8.2735 23.2057 8.2735 42.336C8.2735 61.4663 23.7817 76.9745 42.912 76.9745ZM42.912 84.672C66.2936 84.672 85.248 65.7175 85.248 42.336C85.248 18.9545 66.2936 0 42.912 0C19.5305 0 0.57605 18.9545 0.57605 42.336C0.57605 65.7175 19.5305 84.672 42.912 84.672ZM42.9119 55.8066C50.3515 55.8066 56.3824 49.7756 56.3824 42.3361C56.3824 34.8965 50.3515 28.8655 42.9119 28.8655C35.4723 28.8655 29.4413 34.8965 29.4413 42.3361C29.4413 49.7756 35.4723 55.8066 42.9119 55.8066ZM63.6694 38.1666H70.9221V45.8641H63.7872C62.1076 55.8755 53.4006 63.5041 42.9119 63.5041C31.2211 63.5041 21.7439 54.0268 21.7439 42.3361C21.7439 30.6453 31.2211 21.1681 42.9119 21.1681C53.1754 21.1681 61.7329 28.4726 63.6694 38.1666Z" fill="black"/>
</svg>
