<svg width="28" height="32" viewBox="0 0 28 32" fill="none" xmlns="http://www.w3.org/2000/svg">
<path d="M12.8 32C11.92 32 11.1669 31.6869 10.5408 31.0608C9.91467 30.4347 9.60107 29.6811 9.6 28.8H16C16 29.68 15.6869 30.4336 15.0608 31.0608C14.4347 31.688 13.6811 32.0011 12.8 32ZM1.60001 27.2C1.14667 27.2 0.766939 27.0464 0.460806 26.7392C0.154672 26.432 0.00107218 26.0523 5.51723e-06 25.6C-0.00106115 25.1477 0.152539 24.768 0.460806 24.4608C0.769072 24.1536 1.14881 24 1.60001 24H3.2V12.8C3.2 10.5867 3.86667 8.62027 5.2 6.9008C6.53334 5.18134 8.26667 4.0544 10.4 3.52V2.4C10.4 1.73334 10.6336 1.16694 11.1008 0.700803C11.568 0.23467 12.1344 0.0010703 12.8 3.63636e-06C13.4656 -0.00106303 14.0325 0.232537 14.5008 0.700803C14.9691 1.16907 15.2021 1.73547 15.2 2.4V2.92C14.9333 3.45334 14.7333 4.01334 14.6 4.6C14.4667 5.18667 14.4 5.78667 14.4 6.4C14.4 8.61334 15.1803 10.5003 16.7408 12.0608C18.3013 13.6213 20.1877 14.4011 22.4 14.4V24H24C24.4533 24 24.8336 24.1536 25.1408 24.4608C25.448 24.768 25.6011 25.1477 25.6 25.6C25.5989 26.0523 25.4453 26.4325 25.1392 26.7408C24.8331 27.0491 24.4533 27.2021 24 27.2H1.60001ZM22.4 11.2C21.0667 11.2 19.9333 10.7333 19 9.8C18.0667 8.86667 17.6 7.73334 17.6 6.4C17.6 5.06667 18.0667 3.93334 19 3C19.9333 2.06667 21.0667 1.6 22.4 1.6C23.7333 1.6 24.8667 2.06667 25.8 3C26.7333 3.93334 27.2 5.06667 27.2 6.4C27.2 7.73334 26.7333 8.86667 25.8 9.8C24.8667 10.7333 23.7333 11.2 22.4 11.2Z" fill="#E6DEF5"/>
</svg>
